# File created by Blade
# Date/Time:  Thu Sep 25 17:14:50 2014
# Frame Rate: 120.000 fps
#------------------------------------------------------
:FULLY-SPECIFIED
:DEGREES
667
root -31.892206 31.351620 11.361092 236.193031 70.976337 207.254477
Spine 4.801260 7.678543 15.387005
Head -20.106382 -11.111892 7.313650
LeftShoulder -9.645531 15.103732 28.492503
LeftArm 21.290269 -20.870142 -18.626331
LeftForeArm 12.675877 -0.000000 12.196657
LeftHand -28.235888 -0.000000 -2.580134
LeftHandThumb1 -26.253704 0.000000 33.147579
RightShoulder -15.511929 17.089173 -37.857751
RightArm -4.633237 4.446018 30.054056
RightForeArm -15.495499 -0.000000 17.379020
RightHand -14.382668 0.000000 -5.174754
RightHandThumb1 -24.326973 -0.000000 -32.862282
LeftUpLeg -6.919875 6.999244 3.345049
LeftLeg -4.057997 -0.000000 0.000000
LeftFoot -21.508925 15.615234 -32.278941
LeftToeBase -5.075566 -0.000000 0.000000
RightUpLeg -45.106288 3.078936 8.681568
RightLeg 10.717389 -0.000000 -0.000000
RightFoot -2.613171 4.555407 -5.242824
RightToeBase -0.241027 -0.000000 0.000000
668
root -32.067316 31.287427 11.343517 237.546827 71.612457 209.406916
Spine 4.296327 7.868562 15.170476
Head -19.006063 -10.992389 7.258004
LeftShoulder -10.263565 15.766130 28.568794
LeftArm 21.210360 -21.329282 -18.847469
LeftForeArm 13.031884 0.000000 12.240222
LeftHand -28.097651 -0.000000 -2.044519
LeftHandThumb1 -26.253704 0.000000 33.147579
RightShoulder -15.991514 16.975427 -38.410002
RightArm -4.850180 5.020717 29.933783
RightForeArm -16.376626 -0.000000 17.857392
RightHand -14.740152 -0.000000 -4.715196
RightHandThumb1 -24.326973 -0.000000 -32.862282
LeftUpLeg -6.102622 7.361820 3.220685
LeftLeg -4.417245 -0.000000 0.000000
LeftFoot -22.542050 15.601690 -32.084087
LeftToeBase -4.617164 -0.000000 0.000000
RightUpLeg -44.961375 3.719864 8.545979
RightLeg 11.308312 -0.000000 -0.000000
RightFoot -2.591548 4.778295 -4.825540
RightToeBase 0.104659 -0.000000 -0.000000
669
root -32.237837 31.230288 11.334351 238.729024 72.135269 211.298623
Spine 3.717181 7.999921 14.937394
Head -18.003864 -10.948755 7.289733
LeftShoulder -10.795071 16.369843 28.680121
LeftArm 21.146700 -21.836320 -19.071951
LeftForeArm 13.175163 -0.000000 12.172172
LeftHand -27.758605 -0.000000 -1.993037
LeftHandThumb1 -26.253704 0.000000 33.147579
RightShoulder -16.409561 16.690653 -38.874597
RightArm -5.101801 5.699674 29.811434
RightForeArm -16.901081 -0.000000 18.102549
RightHand -14.751658 0.000000 -4.023015
RightHandThumb1 -24.326973 -0.000000 -32.862282
LeftUpLeg -5.536980 7.898312 3.101242
LeftLeg -4.438494 -0.000000 0.000000
LeftFoot -23.452083 15.162603 -31.756178
LeftToeBase -3.381289 -0.000000 0.000000
RightUpLeg -44.876809 4.210934 8.488721
RightLeg 11.874754 -0.000000 -0.000000
RightFoot -2.429810 5.118101 -4.480176
RightToeBase -0.005003 -0.000000 0.000000
670
root -32.405875 31.177993 11.335967 239.536342 72.532066 212.731156
Spine 3.074793 7.966931 14.678141
Head -17.108051 -10.903810 7.412008
LeftShoulder -11.299867 16.854840 28.806754
LeftArm 21.041791 -22.155749 -19.210526
LeftForeArm 13.097922 -0.000000 12.074811
LeftHand -27.861471 -0.000000 -1.981630
LeftHandThumb1 -26.253704 0.000000 33.147579
RightShoulder -16.761158 16.415523 -39.293406
RightArm -5.431555 6.597685 29.711015
RightForeArm -17.751062 0.000000 18.474791
RightHand -14.837097 -0.000000 -3.582450
RightHandThumb1 -24.326973 -0.000000 -32.862282
LeftUpLeg -5.245820 8.628982 2.966460
LeftLeg -4.128733 -0.000000 0.000000
LeftFoot -24.223497 14.338944 -31.291074
LeftToeBase -1.890236 -0.000000 0.000000
RightUpLeg -44.834873 4.549500 8.431227
RightLeg 12.322675 -0.000000 -0.000000
RightFoot -2.218044 5.345045 -4.351354
RightToeBase -0.036241 -0.000000 0.000000
671
root -32.578172 31.131776 11.336386 239.870168 72.853734 213.637113
Spine 2.440634 7.788046 14.396452
Head -16.304301 -10.835189 7.566326
LeftShoulder -11.726720 17.141234 28.934207
LeftArm 20.829832 -22.239631 -19.212580
LeftForeArm 12.751457 -0.000000 11.895198
LeftHand -27.855041 -0.000000 -1.846823
LeftHandThumb1 -26.253704 0.000000 33.147579
RightShoulder -17.127667 16.204653 -39.654754
RightArm -5.751335 7.371063 29.507227
RightForeArm -18.389214 -0.000000 18.754037
RightHand -15.175740 -0.000000 -2.984173
RightHandThumb1 -24.326973 -0.000000 -32.862282
LeftUpLeg -4.967727 8.726955 2.867393
LeftLeg -3.903206 -0.000000 0.000000
LeftFoot -25.070878 13.913997 -30.983027
LeftToeBase -0.575230 -0.000000 0.000000
RightUpLeg -44.813441 4.713356 8.348519
RightLeg 12.717039 -0.000000 -0.000000
RightFoot -1.936676 5.623914 -4.111326
RightToeBase -0.135054 -0.000000 0.000000
672
root -32.758024 31.094117 11.342969 239.601107 73.064683 213.859954
Spine 1.801234 7.445745 14.079759
Head -15.684757 -10.793438 7.817941
LeftShoulder -12.079124 17.247035 29.132300
LeftArm 20.553706 -22.271615 -19.281907
LeftForeArm 12.555742 -0.000000 11.703645
LeftHand -27.763480 -0.000000 -1.984225
LeftHandThumb1 -26.253704 0.000000 33.147579
RightShoulder -17.506860 16.246587 -40.039496
RightArm -6.284476 7.938090 29.255124
RightForeArm -18.816381 -0.000000 18.986661
RightHand -14.923418 -0.000000 -2.731965
RightHandThumb1 -24.326973 -0.000000 -32.862282
LeftUpLeg -4.791445 8.553953 2.739144
LeftLeg -3.709416 -0.000000 0.000000
LeftFoot -25.934850 13.760264 -30.764175
LeftToeBase 1.189242 -0.000000 -0.000000
RightUpLeg -44.830106 4.657912 8.264100
RightLeg 12.991362 -0.000000 -0.000000
RightFoot -1.704324 5.790262 -4.265893
RightToeBase 0.038508 -0.000000 -0.000000
673
root -32.945146 31.068566 11.343256 238.691590 73.252494 213.328251
Spine 1.113928 7.007843 13.635651
Head -15.192992 -10.817103 8.112797
LeftShoulder -12.396160 17.399008 29.317322
LeftArm 20.350353 -22.453199 -19.417344
LeftForeArm 12.467026 -0.000000 11.568122
LeftHand -27.003229 -0.000000 -0.985725
LeftHandThumb1 -26.253704 0.000000 33.147579
RightShoulder -17.961702 16.294414 -40.322504
RightArm -6.721188 8.487062 28.894065
RightForeArm -19.619822 0.000000 19.100520
RightHand -15.034644 -0.000000 -2.369670
RightHandThumb1 -24.326973 -0.000000 -32.862282
LeftUpLeg -4.731701 8.128024 2.474197
LeftLeg -3.515861 -0.000000 0.000000
LeftFoot -26.580202 13.760622 -30.638838
LeftToeBase 1.509540 -0.000000 -0.000000
RightUpLeg -44.925898 4.379894 8.083362
RightLeg 13.243607 -0.000000 -0.000000
RightFoot -1.379517 6.021051 -3.919952
RightToeBase 0.041841 -0.000000 -0.000000
674
root -33.127853 31.054667 11.337985 237.144922 73.376598 212.163983
Spine 0.515996 6.469634 13.151809
Head -14.849395 -10.881188 8.469658
LeftShoulder -12.696581 17.445859 29.414760
LeftArm 20.184257 -22.650774 -19.505209
LeftForeArm 12.518087 0.000000 11.447196
LeftHand -26.827169 -0.000000 -0.268108
LeftHandThumb1 -26.253704 0.000000 33.147579
RightShoulder -18.407541 16.364262 -40.550598
RightArm -7.320873 9.194369 28.434323
RightForeArm -20.488728 -0.000000 19.335914
RightHand -15.162122 -0.000000 -1.851533
RightHandThumb1 -24.326973 -0.000000 -32.862282
LeftUpLeg -4.617135 7.510536 2.154613
LeftLeg -3.466493 -0.000000 0.000000
LeftFoot -27.042532 13.992809 -30.511496
LeftToeBase 1.713036 -0.000000 -0.000000
RightUpLeg -44.921966 3.861283 7.910239
RightLeg 13.352177 -0.000000 -0.000000
RightFoot -1.000579 6.258350 -3.620456
RightToeBase 0.141288 -0.000000 -0.000000
675
root -33.307841 31.052540 11.325427 235.016917 73.464002 210.381029
Spine -0.061936 5.824589 12.563566
Head -14.544965 -10.979792 8.906170
LeftShoulder -12.985536 17.521266 29.499812
LeftArm 20.076177 -22.986771 -19.676734
LeftForeArm 12.714470 -0.000000 11.375723
LeftHand -27.127235 -0.000000 -0.491361
LeftHandThumb1 -26.253704 0.000000 33.147579
RightShoulder -18.900940 16.401568 -40.567083
RightArm -7.696129 9.809201 27.807500
RightForeArm -21.389026 -0.000000 19.103752
RightHand -14.764909 -0.000000 -2.149437
RightHandThumb1 -24.326973 -0.000000 -32.862282
LeftUpLeg -4.515490 6.888440 1.726133
LeftLeg -3.514525 -0.000000 0.000000
LeftFoot -27.239048 14.212469 -30.479383
LeftToeBase 1.951855 -0.000000 -0.000000
RightUpLeg -44.887474 3.138561 7.691326
RightLeg 13.361107 -0.000000 -0.000000
RightFoot -0.562145 6.551034 -3.327777
RightToeBase 0.215378 -0.000000 -0.000000
676
root -33.485942 31.062001 11.303456 232.442388 73.554034 208.116986
Spine -0.607249 5.246901 11.869917
Head -14.329245 -11.211733 9.334608
LeftShoulder -13.169617 17.573339 29.509501
LeftArm 20.045148 -23.225470 -19.729303
LeftForeArm 12.935876 -0.000000 11.256559
LeftHand -27.495319 -0.000000 0.003534
LeftHandThumb1 -26.253704 0.000000 33.147579
RightShoulder -19.421891 16.456276 -40.527364
RightArm -8.287287 10.360339 27.045649
RightForeArm -21.973892 0.000000 19.240568
RightHand -15.539472 -0.000000 -1.959713
RightHandThumb1 -24.326973 -0.000000 -32.862282
LeftUpLeg -4.452444 6.204804 1.190321
LeftLeg -3.540113 -0.000000 0.000000
LeftFoot -27.242309 14.474262 -30.365585
LeftToeBase 2.266753 -0.000000 -0.000000
RightUpLeg -44.822194 2.270585 7.406692
RightLeg 13.279214 -0.000000 -0.000000
RightFoot 0.005293 6.965789 -2.808637
RightToeBase 0.206937 -0.000000 -0.000000
677
root -33.650481 31.079789 11.279372 229.783558 73.584005 205.817080
Spine -1.079490 4.731156 11.234140
Head -14.041213 -11.513130 9.687523
LeftShoulder -13.221193 17.503735 29.496784
LeftArm 19.869513 -23.501007 -19.804854
LeftForeArm 13.030621 -0.000000 11.355114
LeftHand -27.032948 0.000000 0.389492
LeftHandThumb1 -26.253704 0.000000 33.147579
RightShoulder -19.906918 16.240044 -40.452331
RightArm -8.833127 10.936749 26.356593
RightForeArm -22.825183 -0.000000 19.219724
RightHand -15.851405 -0.000000 -2.252125
RightHandThumb1 -24.326973 -0.000000 -32.862282
LeftUpLeg -4.315048 5.665190 0.700493
LeftLeg -3.545335 -0.000000 0.000000
LeftFoot -27.036058 14.499168 -30.268496
LeftToeBase 2.503890 -0.000000 -0.000000
RightUpLeg -44.576994 1.331178 7.182978
RightLeg 12.950582 -0.000000 -0.000000
RightFoot 0.633940 7.342829 -2.553146
RightToeBase 0.337293 -0.000000 -0.000000
